<svg xmlns="http://www.w3.org/2000/svg" viewBox="0 0 1599.25 710.3"><defs><style>.cls-1,.cls-3{fill:#fff;}.cls-1,.cls-2{fill-rule:evenodd;}.cls-2{fill:#52919f;}.cls-3{font-size:500px;font-family:FZDBSJW--GB1-0, FZDaBiaoSong-B06S;letter-spacing:0.03em;}</style></defs><title>LOGO-3</title><g id="LOGO"><g id="MAIN"><path class="cls-1" d="M266,.85S42,306,42,490.71c0,121.76,100.29,220.44,224,220.44s224-98.68,224-220.44C490,306,266,.85,266,.85Zm0,684.89c-113.81,0-206.08-90.79-206.08-202.8C59.92,313,266,32.26,266,32.26S472.08,313,472.08,482.93C472.08,595,379.81,685.74,266,685.74Z" transform="translate(-0.75 -0.85)"/></g><g id="EYE-L"><path class="cls-1" d="M198,125.59c2.58-5.61,5.32-11.39,9-18.17A196.28,196.28,0,0,0,197,125C197.37,125.18,197.69,125.4,198,125.59ZM222,24a60,60,0,0,0-29.4,112.32A62.8,62.8,0,0,1,197,125a48,48,0,1,1,52-80.61C226.3,74.82,214.63,93.29,207,107.43c14.12-22.57,35-50.15,48.75-73A59.72,59.72,0,0,0,222,24Z" transform="translate(-0.75 -0.85)"/></g><g id="EYE-R"><path class="cls-1" d="M285.19,42.9c2.53,3.17,5,6.35,7.35,9.53q-2.92-5-6-10.29ZM310,24a59.73,59.73,0,0,0-29.61,7.8c2.11,3.55,4.14,7,6.11,10.33a48,48,0,0,1,49.62,82.14c-9.53-19.08-23.86-45.46-43.58-71.85,19.66,33.65,33.09,57.74,49.49,82.32A60,60,0,0,0,310,24Z" transform="translate(-0.75 -0.85)"/></g><g id="WING-L"><path class="cls-1" d="M90,611c-39.76,2.62-140-87,38-373-237,326-92.64,476.34,29,377,59.63-48.7,79-147,96-225C224,478,180.05,605.07,90,611Z" transform="translate(-0.75 -0.85)"/></g><g id="WING-R"><path class="cls-1" d="M403.88,238c177.82,285.82,77.68,375.39,38,372.77C351.87,604.84,308,477.85,279,389.91c17,78,36.33,176.19,95.9,224.86C496.43,714,640.64,563.8,403.88,238Z" transform="translate(-0.75 -0.85)"/></g><g id="BOTTOM"><path class="cls-1" d="M374.9,614.77c-59-48.22-78.56-145.08-95.43-222.68a7.31,7.31,0,0,0-.48-2.19c-5.37-1.65-10.9-2.74-26,.09-17,78-36.37,176.3-96,225a153,153,0,0,1-28.76,18.76,208.54,208.54,0,0,0,275.66-.12A152.59,152.59,0,0,1,374.9,614.77Z" transform="translate(-0.75 -0.85)"/></g><g id="Y"><polygon class="cls-2" points="387.25 225.15 265.25 339.15 143.25 225.15 124.25 264.15 235.25 428.15 250.25 701.15 280.25 701.15 295.25 428.15 406.25 264.15 387.25 225.15"/></g></g><g id="莹家"><text class="cls-3" transform="translate(569.25 558.15)">莹家</text></g></svg>